<svg width="302" height="170" xmlns="http://www.w3.org/2000/svg" xmlns:xlink="http://www.w3.org/1999/xlink" overflow="hidden"><defs><clipPath id="clip0"><rect x="0" y="0" width="302" height="170"/></clipPath></defs><g clip-path="url(#clip0)"><rect x="0" y="0" width="302" height="170" fill="#FFFFFF" fill-opacity="0" transform="scale(1 1.0011)"/><path d="M0 34.4887C0 15.4411 15.4411-1.25086e-14 34.4887-1.66781e-14L227.511 0C246.559-4.16952e-15 262 15.4411 262 34.4887L262 91.5113C262 110.559 246.559 126 227.511 126L34.4887 126C15.4411 126-4.16951e-15 110.559 0 91.5113Z" stroke="#D9D9D9" stroke-width="7.99118" stroke-miterlimit="8" stroke-opacity="0.501961" fill="none" fill-rule="evenodd" transform="matrix(1 0 -0 1.0011 20 14.0154)"/><path d="M0 27.6456C-3.75574e-15 12.3774 12.3774-7.51149e-15 27.6456-7.51149e-15L208.354 0C223.623-3.75575e-15 236 12.3774 236 27.6456L236 73.3544C236 88.6226 223.623 101 208.354 101L27.6456 101C12.3774 101 0 88.6226 0 73.3544Z" stroke="#D9D9D9" stroke-width="7.99118" stroke-miterlimit="8" stroke-opacity="0.501961" fill="none" fill-rule="evenodd" transform="matrix(1 0 -0 1.0011 33 26.0287)"/><path d="M0 16 4.00006 0 119 0 123 16Z" stroke="#D9D9D9" stroke-width="7.99118" stroke-miterlimit="8" stroke-opacity="0.501961" fill="none" fill-rule="evenodd" transform="matrix(1 0 -0 1.0011 92 111.123)"/><path d="M0 17 4.24998 0 118.75 0 123 17Z" stroke="#D9D9D9" stroke-width="7.99118" stroke-miterlimit="8" stroke-opacity="0.501961" fill="none" fill-rule="evenodd" transform="matrix(1 0 0 -1.0011 92 158.174)"/></g></svg>